# xmcd
#
# Track frame offsets:
#	183
#	11665
#	24143
#	36418
#	49903
#	61705
#	73650
#	86395
#	97858
#	109648
#	122380
#	134345
#	150325
#	166945
#	182488
#	197843
#	207025
#	216190
#	229975
#	241560
#	255173
#	266095
#
# Disc length: 3671 seconds
#
# Revision: 2
# Processed by: cddbd v1.5.2PL0 Copyright (c) Steve Scherf et al.
# Submitted via: EasyCDDAExtractor 12.0.1.1
#
DISCID=120e5516
DTITLE=Werner Tauber - Latin Collection
DYEAR=1900
DGENRE=Latin
TTITLE0=SB 52 - Mexican Hat Dance Samba
TTITLE1=SB 52 - Marina
TTITLE2=SB 53 - La Bamba
TTITLE3=SB 50 - Barcarole
TTITLE4=SB 54 - Samba Carnavalesco De Brazil
TTITLE5=CC 32 - La Cucaracha
TTITLE6=CC 32 - Tanz der Stunden
TTITLE7=CC 32 - Tiritomba
TTITLE8=CC 32 - Eso Es El Amor
TTITLE9=CC 32 - Pata Pata
TTITLE10=RB 26 - Sabor A Mi
TTITLE11=RB 27 - Melodie In F
TTITLE12=RB 27 - Very Special Love
TTITLE13=RB 27 - Guantanamera
TTITLE14=RB 27 - All At Once
TTITLE15=PD 62 - Paso-Doble Estudiantina
TTITLE16=PD 62 - Kalinka
TTITLE17=JV 32 - Fine Brown Frame
TTITLE18=JV 44 - Schwarze Augen (Black Eyes)
TTITLE19=JV 44 - Love Makes The World Go Round
TTITLE20=JV 44 - Red River Rock
TTITLE21=JV 44 - Trumpet Blues
EXTD=
EXTT0=
EXTT1=
EXTT2=
EXTT3=
EXTT4=
EXTT5=
EXTT6=
EXTT7=
EXTT8=
EXTT9=
EXTT10=
EXTT11=
EXTT12=
EXTT13=
EXTT14=
EXTT15=
EXTT16=
EXTT17=
EXTT18=
EXTT19=
EXTT20=
EXTT21=
PLAYORDER=
